<svg aria-hidden="true" style="width:0;height:0;position:absolute;overflow:hidden" xmlns="http://www.w3.org/2000/svg"><defs><symbol id="icon-apple" viewBox="0 0 26 32"><path d="M25.219 10.909c-.186.144-3.462 1.99-3.462 6.096 0 4.749 4.17 6.429 4.294 6.47-.019.102-.662 2.301-2.198 4.541-1.37 1.971-2.8 3.939-4.976 3.939s-2.736-1.264-5.248-1.264c-2.448 0-3.318 1.306-5.309 1.306s-3.379-1.824-4.976-4.064C1.494 25.303 0 21.216 0 17.338c0-6.221 4.045-9.52 8.026-9.52 2.115 0 3.878 1.389 5.206 1.389 1.264 0 3.235-1.472 5.642-1.472.912 0 4.189.083 6.346 3.174zm-7.488-5.808C18.726 3.92 19.43 2.282 19.43.643A3.04 3.04 0 0 0 19.369 0c-1.619.061-3.546 1.078-4.707 2.426-.912 1.037-1.763 2.675-1.763 4.336 0 .25.042.499.061.579.102.019.269.042.435.042 1.453 0 3.28-.973 4.336-2.282z"/></symbol><symbol id="icon-gmail" viewBox="0 0 32 32"><path d="M2.182 28.482h5.091V16.118L0 10.663v15.636c0 1.205.976 2.182 2.182 2.182zM24.727 28.482h5.091A2.181 2.181 0 0 0 32 26.3V10.664l-7.273 5.455z"/><path d="M24.727 6.664v9.455L32 10.664V7.755c0-2.696-3.078-4.236-5.236-2.618zM7.273 16.118V6.663L16 13.208l8.727-6.545v9.455L16 22.663zM0 7.755v2.909l7.273 5.455V6.664L5.237 5.137C3.079 3.519.001 5.059.001 7.755z"/></symbol><symbol id="icon-twitter" viewBox="0 0 32 32"><path d="M32 6.078c-1.19.522-2.458.868-3.78 1.036a6.523 6.523 0 0 0 2.886-3.626 13.11 13.11 0 0 1-4.16 1.588A6.574 6.574 0 0 0 22.154 3c-3.632 0-6.556 2.948-6.556 6.562 0 .52.044 1.02.152 1.496-5.454-.266-10.28-2.88-13.522-6.862a6.605 6.605 0 0 0-.898 3.316 6.57 6.57 0 0 0 2.914 5.452 6.479 6.479 0 0 1-2.964-.808v.072c0 3.188 2.274 5.836 5.256 6.446a6.548 6.548 0 0 1-1.72.216 5.8 5.8 0 0 1-1.242-.112c.85 2.598 3.262 4.508 6.13 4.57a13.182 13.182 0 0 1-8.134 2.798c-.538 0-1.054-.024-1.57-.09A18.469 18.469 0 0 0 10.064 29c12.072 0 18.672-10 18.672-18.668 0-.29-.01-.57-.024-.848A13.087 13.087 0 0 0 32 6.078z"/></symbol><symbol id="icon-facebook" viewBox="0 0 32 32"><path d="M21.329 5.313h2.921V.225C23.746.156 22.013 0 19.994 0c-4.212 0-7.097 2.649-7.097 7.519V12H8.249v5.688h4.648V32h5.699V17.689h4.46l.708-5.688h-5.169V8.082c.001-1.644.444-2.769 2.735-2.769z"/></symbol></defs></svg>